PathFileType	3	(X/Y/Z)	RCH0000002 BBF 09.c3d
DataRate	CameraRate	NumFrames	NumMarkers	Units	OrigDataRate	OrigDataStartFrame	OrigNumFrames
100.0	100.0	10	23	mm	100.0	114	352
Frame#	Time	T2			T10			MAN			LASI			RASI			LPSI			RPSI			LPAT			LKNE			LANK			LMED			LHEE			LTOE			RPAT			RKNE			RANK			RMED			RHEE			RTOE			RTHI			LTHI			RTIB			LTIB			
		X1	Y1	Z1	X2	Y2	Z2	X3	Y3	Z3	X4	Y4	Z4	X5	Y5	Z5	X6	Y6	Z6	X7	Y7	Z7	X8	Y8	Z8	X9	Y9	Z9	X10	Y10	Z10	X11	Y11	Z11	X12	Y12	Z12	X13	Y13	Z13	X14	Y14	Z14	X15	Y15	Z15	X16	Y16	Z16	X17	Y17	Z17	X18	Y18	Z18	X19	Y19	Z19	X20	Y20	Z20	X21	Y21	Z21	X22	Y22	Z22	X23	Y23	Z23	

114	1.130	-1683.91148	14.50172	972.39314	-1671.19040	15.77031	785.56111	-1548.84097	31.77459	947.96407	-1597.43991	93.21791	627.28162	-1566.60257	-78.23254	654.94393	-1694.41920	31.87764	692.08283	-1682.87078	-37.18126	704.90445	-1584.92917	45.30265	349.37630	-1647.35016	94.48442	319.71744	-1841.07148	92.94495	135.84747	-1824.97113	23.69173	142.85591	-1850.06268	50.64644	181.30792	-1804.76885	59.49623	98.61075	-1535.55747	-20.79925	380.66631	-1574.34588	-78.50876	343.57080	-1652.40263	-96.84534	81.08380	-1676.16733	-32.26440	96.38139	-1699.49381	-77.95412	118.31193	-1617.65427	-51.48773	73.33347	-1561.86902	-152.08082	452.08376	-1654.56191	165.51291	443.96526	-1594.08374	-151.77624	232.34516	-1728.02186	156.36983	244.85407	
115	1.140	-1674.84458	15.47762	975.37982	-1661.12019	15.39771	788.76038	-1539.88021	32.91502	952.02835	-1586.08772	92.54254	631.07867	-1557.20246	-79.19220	657.85090	-1683.55500	31.97965	695.99559	-1672.66237	-37.17935	708.34343	-1567.98019	46.64219	355.23723	-1629.91246	95.70701	324.60958	-1820.05336	92.99818	136.52298	-1802.19913	24.05137	142.67390	-1829.03226	49.51593	180.71271	-1781.79708	61.27260	100.18789	-1534.81437	-21.53184	381.29482	-1573.75498	-79.71141	345.07973	-1652.09043	-96.44362	82.15619	-1675.05303	-31.64491	97.57986	-1699.10546	-77.25588	119.57313	-1617.14891	-51.24433	73.80660	-1557.19622	-152.79678	453.09731	-1638.62281	166.75642	448.72413	-1594.93643	-152.54009	233.42707	-1711.25709	156.86205	249.15775	
116	1.150	-1665.78241	16.41118	978.29972	-1651.13811	15.05281	791.87287	-1530.93116	34.03937	955.95230	-1574.80837	91.88888	634.76644	-1547.89894	-80.13401	660.68656	-1672.78847	32.13345	699.76889	-1662.55888	-37.12354	711.67106	-1551.04779	47.98667	361.05976	-1612.44687	96.95829	329.43361	-1798.93675	93.14891	137.10380	-1779.42315	24.49863	142.47215	-1807.96403	48.53888	180.06933	-1758.77855	63.07399	101.70661	-1534.02398	-22.32739	381.91056	-1573.15591	-80.92838	346.57522	-1651.75223	-96.05859	83.22211	-1673.92918	-31.05189	98.77814	-1698.68418	-76.57495	120.83025	-1616.61943	-51.01654	74.27723	-1552.63066	-153.53610	454.09742	-1622.74208	168.01532	453.40208	-1595.75184	-153.31194	234.49895	-1694.34587	157.41961	253.30338	
117	1.160	-1656.70083	17.27471	981.08075	-1641.29827	14.76826	794.80778	-1521.97565	35.13998	959.59405	-1563.63570	91.27457	638.23318	-1538.75072	-81.04110	663.37867	-1662.17809	32.38948	703.26138	-1652.62692	-36.96087	714.77414	-1534.12298	49.33050	366.79723	-1594.89913	98.25504	334.11805	-1777.55502	93.49423	137.49088	-1756.56628	25.11896	142.21278	-1786.75199	47.86204	179.31027	-1735.59351	64.92904	103.10317	-1533.12864	-23.23376	382.49441	-1572.52587	-82.16739	348.04159	-1651.36902	-95.70168	84.27649	-1672.78762	-30.50435	99.97621	-1698.20178	-75.92154	122.08216	-1616.04671	-50.81648	74.74227	-1548.24541	-154.31462	455.06683	-1606.94388	169.29453	457.91213	-1596.49280	-154.09412	235.55104	-1677.10249	158.10209	257.14349	
118	1.170	-1647.56997	18.05136	983.66172	-1631.63493	14.57330	797.48873	-1512.98841	36.21356	962.83501	-1552.58485	90.71101	641.38529	-1529.79416	-81.90086	665.86721	-1651.75954	32.78857	706.35526	-1642.90939	-36.64811	717.55849	-1517.18821	50.67093	372.41010	-1577.21685	99.60855	338.60495	-1755.74627	94.11948	137.60411	-1733.53705	25.98656	141.85818	-1765.28355	47.60724	178.37400	-1712.11362	66.86912	104.32517	-1532.07838	-24.28188	383.02726	-1571.84353	-83.42999	349.46425	-1650.92978	-95.37877	85.31452	-1671.62350	-30.01253	101.17239	-1697.63822	-75.29976	123.32772	-1615.41843	-50.65163	75.19845	-1544.09336	-155.14257	455.99111	-1591.24494	170.59400	462.17977	-1597.13053	-154.88425	236.57447	-1659.35995	158.96197	260.56741	
119	1.180	-1638.36027	18.73699	985.99347	-1622.16457	14.49261	799.85588	-1503.94267	37.26140	965.58448	-1541.65614	90.20277	644.15041	-1521.04415	-82.70499	668.10612	-1641.54781	33.35897	708.96089	-1633.42661	-36.15477	719.95231	-1500.22944	52.00594	377.86334	-1559.36403	101.02172	342.84971	-1733.37303	95.09212	137.38678	-1710.24501	27.15876	141.37176	-1743.45577	47.86309	177.20741	-1688.22044	68.92520	105.33334	-1530.83433	-25.48127	383.49018	-1571.08982	-84.70991	350.82942	-1650.43352	-95.08930	86.33131	-1670.43669	-29.57658	102.36253	-1696.98426	-74.70655	124.56516	-1614.73107	-50.52405	75.64204	-1540.20344	-156.02207	456.85817	-1575.66212	171.90676	466.14362	-1597.64656	-155.67414	237.56106	-1640.99061	160.03885	263.50641	
120	1.190	-1629.04628	19.34040	988.03812	-1612.88841	14.54607	801.86551	-1494.81375	38.28923	967.77976	-1530.83850	89.74820	646.47717	-1512.49598	-83.44885	670.06280	-1631.53977	34.11548	711.01700	-1624.17846	-35.46391	721.90612	-1483.24465	53.33086	383.12353	-1541.32927	102.48709	346.81880	-1710.33201	96.45782	136.80516	-1686.61009	28.67273	140.71780	-1721.18421	48.68168	175.76580	-1663.81646	71.12406	106.10068	-1529.37001	-26.81940	383.86465	-1570.24755	-85.99287	352.12406	-1649.88974	-94.82624	87.32193	-1669.23238	-29.18693	103.53999	-1696.24229	-74.13171	125.79195	-1613.99044	-50.43038	76.06891	-1536.57834	-156.94560	457.65703	-1560.21516	173.21797	469.75435	-1598.03317	-156.44985	238.50339	-1621.91620	161.35489	265.93140	
121	1.200	-1619.60867	19.88231	989.76722	-1603.79474	14.74895	803.48802	-1485.58104	39.30677	969.38387	-1520.11231	89.34097	648.33314	-1504.12773	-84.13030	671.71652	-1621.71700	35.06017	712.48820	-1615.14698	-34.57146	723.39047	-1466.24920	54.63440	388.15570	-1523.12880	103.98571	350.48636	-1686.55697	98.23812	135.84504	-1662.56802	30.54355	139.86092	-1698.40702	50.07850	174.01136	-1638.83130	73.48415	106.60993	-1527.67072	-28.26394	384.13296	-1569.30002	-87.25798	353.33607	-1649.31739	-94.57713	88.28184	-1668.02061	-28.82615	104.69637	-1695.42550	-73.55888	127.00517	-1613.21079	-50.36272	76.47475	-1533.19351	-157.89585	458.37662	-1544.92537	174.50502	472.97276	-1598.29244	-157.19287	239.39509	-1602.11014	162.91165	267.84540	
122	1.210	-1610.03496	20.39330	991.15964	-1594.86105	15.11224	804.70541	-1476.22891	40.32708	970.38211	-1509.45159	88.97206	649.70192	-1495.90289	-84.74846	673.05630	-1612.04848	36.18409	713.36123	-1606.29909	-33.48458	724.39277	-1449.27824	55.89442	392.92042	-1504.80559	105.48658	353.83026	-1662.01790	100.42924	134.50654	-1638.07390	32.76324	138.76547	-1675.08635	52.03469	171.91123	-1613.22510	76.01111	106.85015	-1525.73122	-29.76720	384.27888	-1568.22880	-88.47996	354.45454	-1648.74226	-94.32598	89.20749	-1666.81506	-28.47216	105.82276	-1694.55564	-72.96778	128.20231	-1612.41275	-50.31020	76.85544	-1529.99731	-158.84687	459.00467	-1529.81174	175.73810	475.76768	-1598.43349	-157.88215	240.23119	-1581.59420	164.68883	269.27312	
123	1.220	-1600.31939	20.91126	992.19959	-1586.05577	15.64298	805.50871	-1466.74684	41.36582	970.77836	-1498.82576	88.63183	650.58007	-1487.77321	-85.30259	674.07866	-1602.49317	37.46960	713.64075	-1597.58936	-32.21945	724.91377	-1432.38649	57.07460	397.37126	-1486.42553	106.94688	356.82818	-1636.71886	103.00208	132.79827	-1613.10566	35.30081	137.39549	-1651.20944	54.50094	169.43574	-1586.99097	78.69383	106.81321	-1523.55174	-31.27213	384.28815	-1567.01073	-89.63207	355.46975	-1648.19317	-94.05612	90.09700	-1665.63103	-28.10235	106.91131	-1693.65920	-72.33767	129.38221	-1611.62019	-50.26095	77.20747	-1526.91255	-159.76644	459.52709	-1514.88588	176.88150	478.11417	-1598.46803	-158.49675	241.00849	-1560.43165	166.64482	270.24938	
